<svg xmlns="http://www.w3.org/2000/svg" viewBox="0 0 158 31" fill="none" role="img" aria-label="Cognite">
<path d="M23.9359 16.3598C39.1299 12.8167 45.9319 12.6874 46.7667 14.0398C47.5147 15.2515 42.1763 17.9779 41.0579 18.532C41.0436 18.5392 41.0525 18.5607 41.0675 18.5553C42.3014 18.1041 48.4739 15.7315 47.8246 13.6574C46.1958 9.47518 23.9365 14.6448 23.9365 14.6448C8.74247 18.1879 1.94044 18.3172 1.10567 16.9648C0.35767 15.753 5.69601 13.0267 6.81442 12.4726C6.82878 12.4654 6.8198 12.4438 6.80484 12.4492C5.57094 12.9004 -0.601567 15.2731 0.047698 17.3471C1.67655 21.5294 23.9359 16.3598 23.9359 16.3598Z" fill="#1a1a1a"></path><path d="M38.3088 7.24183V13.1421C36.9594 13.2659 35.5663 13.4449 34.2019 13.6519V7.24183C34.2019 6.10786 35.1211 5.18872 36.255 5.18872H36.2556C37.3896 5.18872 38.3088 6.10786 38.3088 7.24183Z" fill="#1a1a1a"></path><path d="M13.6698 11.4307V17.7379C12.154 17.9719 10.7873 18.1562 9.56353 18.3088V11.4307C9.56353 10.2968 10.4827 9.37762 11.6166 9.37762C12.7506 9.37762 13.6698 10.2968 13.6698 11.4307Z" fill="#1a1a1a"></path><path d="M30.0959 2.05312V14.3724C28.4886 14.6818 27.0644 14.9894 25.989 15.2329V2.05312C25.989 0.919145 26.9082 0 28.0421 0H28.0427C29.1767 0 30.0959 0.919145 30.0959 2.05312Z" fill="#1a1a1a"></path><path d="M21.8827 6.24208V16.1953C20.4304 16.5118 19.0624 16.7871 17.7759 17.0277V6.24208C17.7759 5.10811 18.695 4.18896 19.829 4.18896H19.8296C20.9636 4.18896 21.8827 5.10811 21.8827 6.24208Z" fill="#1a1a1a"></path><path d="M38.3088 16.5609V19.5733C38.3088 20.7072 37.3896 21.6264 36.2556 21.6264H36.255C35.1211 21.6264 34.2019 20.7072 34.2019 19.5733V17.1324C35.7183 16.8984 37.085 16.7141 38.3088 16.5609Z" fill="#1a1a1a"></path><path d="M13.6698 21.2173V23.7617C13.6698 24.8957 12.7506 25.8149 11.6166 25.8149C10.4827 25.8149 9.56353 24.8957 9.56353 23.7617V21.7272C10.9129 21.6033 12.306 21.4244 13.6698 21.2173Z" fill="#1a1a1a"></path><path d="M30.0959 17.8423V24.7616C30.0959 25.8956 29.1767 26.8147 28.0427 26.8147H28.0421C26.9082 26.8147 25.989 25.8956 25.989 24.7616V18.6747C27.4413 18.3575 28.8093 18.0822 30.0959 17.8423Z" fill="#1a1a1a"></path><path d="M21.8827 19.6362V28.9503C21.8827 30.0843 20.9636 31.0035 19.8296 31.0035H19.829C18.695 31.0035 17.7759 30.0843 17.7759 28.9503V20.4967C19.3832 20.1874 20.8074 19.8798 21.8827 19.6362Z" fill="#1a1a1a"></path><path d="M64.8031 17.3659C63.7578 17.3659 62.7835 17.1978 61.8802 16.8617C60.9898 16.5126 60.2155 16.0212 59.5574 15.3877C58.8992 14.7541 58.3831 14.0106 58.0088 13.1573C57.6475 12.3039 57.4668 11.3665 57.4668 10.345C57.4668 9.32358 57.6475 8.38617 58.0088 7.53281C58.3831 6.67944 58.8992 5.93598 59.5574 5.30242C60.2284 4.66886 61.0092 4.18399 61.8996 3.84781C62.79 3.49871 63.7643 3.32416 64.8225 3.32416C65.9968 3.32416 67.055 3.53104 67.997 3.94479C68.952 4.34561 69.752 4.94038 70.3973 5.7291L68.3842 7.59099C67.9196 7.06087 67.4034 6.66651 66.8356 6.40792C66.2678 6.13639 65.6484 6.00063 64.9773 6.00063C64.345 6.00063 63.7643 6.10407 63.2352 6.31094C62.7061 6.51782 62.248 6.8152 61.8609 7.2031C61.4737 7.59099 61.1705 8.05 60.9511 8.58012C60.7446 9.11024 60.6414 9.69855 60.6414 10.345C60.6414 10.9915 60.7446 11.5798 60.9511 12.11C61.1705 12.6401 61.4737 13.0991 61.8609 13.487C62.248 13.8749 62.7061 14.1723 63.2352 14.3791C63.7643 14.586 64.345 14.6894 64.9773 14.6894C65.6484 14.6894 66.2678 14.5602 66.8356 14.3016C67.4034 14.03 67.9196 13.6227 68.3842 13.0797L70.3973 14.9416C69.752 15.7303 68.952 16.3315 67.997 16.7453C67.055 17.159 65.9903 17.3659 64.8031 17.3659Z" fill="#1a1a1a"></path><path d="M80.2278 17.3659C79.1567 17.3659 78.1631 17.1914 77.2468 16.8423C76.3435 16.4932 75.5563 16.0018 74.8853 15.3683C74.2271 14.7347 73.711 13.9912 73.3367 13.1379C72.9754 12.2845 72.7947 11.3536 72.7947 10.345C72.7947 9.33652 72.9754 8.40557 73.3367 7.5522C73.711 6.69884 74.2336 5.95537 74.9046 5.32181C75.5757 4.68825 76.3629 4.19692 77.2662 3.84782C78.1695 3.49871 79.1503 3.32416 80.2085 3.32416C81.2795 3.32416 82.2603 3.49871 83.1507 3.84782C84.054 4.19692 84.8348 4.68826 85.4929 5.32182C86.1639 5.95538 86.6866 6.69884 87.0608 7.55221C87.4351 8.39264 87.6222 9.32359 87.6222 10.345C87.6222 11.3536 87.435 12.291 87.0608 13.1573C86.6866 14.0106 86.1639 14.7541 85.4929 15.3877C84.8348 16.0083 84.054 16.4932 83.1507 16.8423C82.2603 17.1914 81.286 17.3659 80.2278 17.3659ZM80.2085 14.6895C80.815 14.6895 81.3699 14.586 81.8731 14.3791C82.3893 14.1723 82.841 13.8749 83.2281 13.487C83.6153 13.0991 83.9121 12.6401 84.1186 12.11C84.3379 11.5798 84.4476 10.9915 84.4476 10.345C84.4476 9.69855 84.3379 9.11025 84.1186 8.58012C83.9121 8.05 83.6153 7.591 83.2281 7.2031C82.8539 6.81521 82.4087 6.51782 81.8925 6.31094C81.3763 6.10407 80.815 6.00063 80.2085 6.00063C79.6019 6.00063 79.0406 6.10407 78.5244 6.31094C78.0211 6.51782 77.5759 6.81521 77.1888 7.2031C76.8016 7.59099 76.4984 8.05 76.279 8.58012C76.0725 9.11024 75.9693 9.69855 75.9693 10.345C75.9693 10.9786 76.0725 11.5669 76.279 12.11C76.4984 12.6401 76.7952 13.0991 77.1694 13.487C77.5565 13.8749 78.0082 14.1723 78.5244 14.3791C79.0406 14.586 79.6019 14.6895 80.2085 14.6895Z" fill="#1a1a1a"></path><path d="M97.5743 17.3659C96.5032 17.3659 95.516 17.1978 94.6127 16.8617C93.7222 16.5126 92.9415 16.0212 92.2705 15.3877C91.6123 14.7541 91.0962 14.0106 90.7219 13.1573C90.3606 12.3039 90.1799 11.3665 90.1799 10.345C90.1799 9.32359 90.3606 8.38618 90.7219 7.53281C91.0962 6.67944 91.6188 5.93598 92.2898 5.30242C92.9609 4.66886 93.7481 4.18399 94.6514 3.84782C95.5547 3.49872 96.5484 3.32416 97.6324 3.32416C98.8325 3.32416 99.91 3.52458 100.865 3.9254C101.833 4.32622 102.646 4.90807 103.304 5.67092L101.291 7.53281C100.8 7.01562 100.265 6.63419 99.6842 6.38853C99.1035 6.12993 98.4712 6.00063 97.7872 6.00063C97.1291 6.00063 96.529 6.10407 95.987 6.31095C95.445 6.51782 94.974 6.81521 94.574 7.2031C94.1868 7.591 93.8836 8.05 93.6642 8.58013C93.4577 9.11025 93.3545 9.69855 93.3545 10.345C93.3545 10.9786 93.4577 11.5604 93.6642 12.0906C93.8836 12.6207 94.1868 13.0862 94.574 13.487C94.974 13.8749 95.4386 14.1723 95.9677 14.3791C96.5096 14.586 97.1033 14.6895 97.7485 14.6895C98.3679 14.6895 98.968 14.5925 99.5487 14.3985C100.142 14.1917 100.717 13.849 101.271 13.3706L103.052 15.6398C102.317 16.1958 101.459 16.6225 100.478 16.9198C99.51 17.2172 98.5421 17.3659 97.5743 17.3659ZM100.187 15.2325L100.187 10.1317L103.052 10.1317L103.052 15.6398L100.187 15.2325Z" fill="#1a1a1a"></path><path d="M107.63 17.1332L107.63 3.5569L110.224 3.5569L118.219 13.3318L116.96 13.3318L116.96 3.5569L120.058 3.5569L120.058 17.1332L117.483 17.1332L109.469 7.35826L110.728 7.35826L110.728 17.1332L107.63 17.1332Z" fill="#1a1a1a"></path><path d="M125.199 17.1332L125.199 3.55691L128.335 3.55691L128.335 17.1332L125.199 17.1332Z" fill="#1a1a1a"></path><path d="M136.293 17.1332L136.293 6.11701L131.957 6.11701L131.957 3.55691L143.765 3.55691L143.765 6.11701L139.429 6.11701L139.429 17.1332L136.293 17.1332Z" fill="#1a1a1a"></path><path d="M150.393 9.02621L156.916 9.02622L156.916 11.4699L150.393 11.4699L150.393 9.02621ZM150.625 14.6119L158 14.6119L158 17.1332L147.508 17.1332L147.508 3.55691L157.748 3.55691L157.748 6.07822L150.625 6.07822L150.625 14.6119Z" fill="#1a1a1a"></path><path d="M97.9487 9.29863L103.052 9.29863L103.052 11.7425L97.9487 11.7425L97.9487 9.29863Z" fill="#1a1a1a"></path><path d="M154.823 27.5528V25.2608L152.631 21.2361H153.732L155.248 24.0967H155.383L156.899 21.2361H158L155.807 25.2608V27.5528H154.823Z" fill="#1a1a1a"></path><path d="M145.509 27.5528V21.2361H148.162C148.553 21.2361 148.896 21.3053 149.191 21.4436C149.492 21.576 149.723 21.7685 149.886 22.0212C150.054 22.2738 150.138 22.5746 150.138 22.9236V23.0228C150.138 23.4199 150.042 23.7387 149.85 23.9794C149.663 24.214 149.434 24.3794 149.164 24.4757V24.6201C149.392 24.6321 149.576 24.7103 149.714 24.8547C149.853 24.993 149.922 25.1946 149.922 25.4593V27.5528H148.938V25.5946C148.938 25.4322 148.896 25.3029 148.812 25.2066C148.728 25.1104 148.592 25.0622 148.406 25.0622H146.484V27.5528H145.509ZM146.484 24.1779H148.054C148.403 24.1779 148.673 24.0907 148.866 23.9162C149.058 23.7357 149.155 23.4921 149.155 23.1853V23.1131C149.155 22.8062 149.058 22.5656 148.866 22.3911C148.679 22.2107 148.409 22.1204 148.054 22.1204H146.484V24.1779Z" fill="#1a1a1a"></path><path d="M139.59 27.5528V22.1204H137.65V21.2361H142.505V22.1204H140.565V27.5528H139.59Z" fill="#1a1a1a"></path><path d="M132.85 27.6793C132.374 27.6793 131.953 27.5951 131.586 27.4266C131.219 27.2582 130.93 27.0115 130.72 26.6866C130.515 26.3558 130.413 25.9557 130.413 25.4865V25.2609H131.379V25.4865C131.379 25.9316 131.511 26.2655 131.776 26.4881C132.046 26.7107 132.404 26.822 132.85 26.822C133.301 26.822 133.641 26.7288 133.869 26.5423C134.098 26.3498 134.212 26.1031 134.212 25.8023C134.212 25.6038 134.158 25.4413 134.05 25.315C133.941 25.1887 133.788 25.0894 133.589 25.0172C133.391 24.939 133.153 24.8668 132.877 24.8006L132.543 24.7194C132.14 24.6232 131.788 24.5059 131.487 24.3675C131.192 24.2231 130.964 24.0336 130.801 23.799C130.639 23.5644 130.557 23.2636 130.557 22.8966C130.557 22.5236 130.648 22.2048 130.828 21.9401C131.015 21.6754 131.27 21.4708 131.595 21.3264C131.92 21.1821 132.302 21.1099 132.741 21.1099C133.18 21.1099 133.571 21.1851 133.914 21.3355C134.263 21.4859 134.537 21.7085 134.736 22.0032C134.934 22.298 135.033 22.668 135.033 23.1132V23.438H134.068V23.1132C134.068 22.8425 134.011 22.6229 133.896 22.4544C133.788 22.286 133.635 22.1627 133.436 22.0844C133.238 22.0062 133.006 21.9671 132.741 21.9671C132.356 21.9671 132.055 22.0484 131.839 22.2108C131.628 22.3672 131.523 22.5868 131.523 22.8695C131.523 23.062 131.568 23.2215 131.658 23.3478C131.755 23.4681 131.893 23.5674 132.073 23.6456C132.254 23.7238 132.48 23.793 132.75 23.8531L133.084 23.9344C133.493 24.0246 133.854 24.1419 134.167 24.2863C134.48 24.4247 134.727 24.6142 134.907 24.8548C135.087 25.0954 135.178 25.4053 135.178 25.7843C135.178 26.1633 135.081 26.4941 134.889 26.7769C134.702 27.0596 134.435 27.2822 134.086 27.4447C133.737 27.6011 133.325 27.6793 132.85 27.6793Z" fill="#1a1a1a"></path><path d="M124.909 27.6792C124.41 27.6792 123.979 27.5889 123.618 27.4084C123.263 27.228 122.987 26.9693 122.788 26.6324C122.596 26.2895 122.499 25.8744 122.499 25.3871V21.2361H123.483V25.4142C123.483 25.8593 123.606 26.2022 123.853 26.4429C124.1 26.6835 124.452 26.8038 124.909 26.8038C125.366 26.8038 125.718 26.6835 125.965 26.4429C126.211 26.2022 126.335 25.8593 126.335 25.4142V21.2361H127.309V25.3871C127.309 25.8744 127.213 26.2895 127.02 26.6324C126.828 26.9693 126.551 27.228 126.19 27.4084C125.829 27.5889 125.402 27.6792 124.909 27.6792Z" fill="#1a1a1a"></path><path d="M114.188 27.5528V26.6865H115.036V22.1024H114.188V21.2361H116.715C117.557 21.2361 118.201 21.4497 118.646 21.8768C119.097 22.3039 119.323 22.9476 119.323 23.8079V24.99C119.323 25.8503 119.097 26.494 118.646 26.9212C118.201 27.3423 117.557 27.5528 116.715 27.5528H114.188ZM116.02 26.6685H116.724C117.271 26.6685 117.677 26.5301 117.942 26.2534C118.207 25.9766 118.339 25.5646 118.339 25.0171V23.7718C118.339 23.2183 118.207 22.8062 117.942 22.5355C117.677 22.2648 117.271 22.1295 116.724 22.1295H116.02V26.6685Z" fill="#1a1a1a"></path><path d="M106.283 27.5528V21.2361H108.16L109.875 26.9031H110.019V21.2361H110.985V27.5528H109.108L107.393 21.8768H107.249V27.5528H106.283Z" fill="#1a1a1a"></path><path d="M101.871 27.5528V21.2361H102.846V27.5528H101.871Z" fill="#1a1a1a"></path><path d="M89.6283 27.5528V21.2361H92.2813C92.6723 21.2361 93.0152 21.3053 93.31 21.4436C93.6108 21.576 93.8424 21.7685 94.0049 22.0212C94.1733 22.2738 94.2575 22.5746 94.2575 22.9236V23.0228C94.2575 23.4199 94.1613 23.7387 93.9688 23.9794C93.7823 24.214 93.5537 24.3794 93.283 24.4757V24.6201C93.5116 24.6321 93.695 24.7103 93.8334 24.8547C93.9718 24.993 94.041 25.1946 94.041 25.4593V27.5528H93.0574V25.5946C93.0574 25.4322 93.0152 25.3029 92.931 25.2066C92.8468 25.1104 92.7114 25.0622 92.5249 25.0622H90.6028V27.5528H89.6283ZM90.6028 24.1779H92.173C92.5219 24.1779 92.7927 24.0907 92.9852 23.9162C93.1777 23.7357 93.2739 23.4921 93.2739 23.1853V23.1131C93.2739 22.8062 93.1777 22.5656 92.9852 22.3911C92.7987 22.2107 92.528 22.1204 92.173 22.1204H90.6028V24.1779Z" fill="#1a1a1a"></path><path d="M83.8093 27.6793C83.0332 27.6793 82.4166 27.4627 81.9594 27.0296C81.5022 26.5904 81.2736 25.9587 81.2736 25.1345V23.6546C81.2736 22.8304 81.5022 22.2018 81.9594 21.7686C82.4166 21.3294 83.0332 21.1099 83.8093 21.1099C84.5854 21.1099 85.202 21.3294 85.6592 21.7686C86.1224 22.2018 86.354 22.8304 86.354 23.6546V25.1345C86.354 25.9587 86.1224 26.5904 85.6592 27.0296C85.202 27.4627 84.5854 27.6793 83.8093 27.6793ZM83.8093 26.804C84.3086 26.804 84.6936 26.6596 84.9644 26.3708C85.2351 26.076 85.3704 25.676 85.3704 25.1706V23.6185C85.3704 23.1132 85.2351 22.7161 84.9644 22.4274C84.6936 22.1326 84.3086 21.9852 83.8093 21.9852C83.322 21.9852 82.94 22.1326 82.6633 22.4274C82.3865 22.7161 82.2482 23.1132 82.2482 23.6185V25.1706C82.2482 25.676 82.3865 26.076 82.6633 26.3708C82.94 26.6596 83.322 26.804 83.8093 26.804Z" fill="#1a1a1a"></path><path d="M74.5302 27.5528V21.2361H78.4286V22.1204H75.5048V23.9433H78.194V24.8276H75.5048V27.5528H74.5302Z" fill="#1a1a1a"></path><path d="M65.6976 27.5528V21.2361H66.6722V27.5528H65.6976Z" fill="#1a1a1a"></path><path d="M57.4062 27.5528L59.211 21.2361H60.9255L62.7213 27.5528H61.7196L61.3045 26.0639H58.832L58.4169 27.5528H57.4062ZM59.0756 25.1615H61.0609L60.1404 21.8407H59.996L59.0756 25.1615Z" fill="#1a1a1a"></path>
</svg>